#!OML:ASF Y:\EmotionMaleHayes\Project 1\Capture day 1\Session 1\Male1.ASF
:FULLY-SPECIFIED
:DEGREES
633
root -7.82421 17.0475 -2.26867 447.992 83.8248 454.509
lowerback 5.31486 0.998326 -10.3185
upperback 4.53399 1.1414 -1.58023
thorax 1.61212 0.411672 4.08868
lowerneck -23.5974 2.78631 3.90325
upperneck 31.1907 3.5699 -1.52467
head 14.8991 1.94405 -0.55566
rclavicle -1.21756e-015 1.17283e-014
rhumerus 48.2783 18.4887 -33.9151
rradius 40.2238
rwrist -2.52016
rhand 0.0789943 -30.4421
rfingers 7.12502
rthumb 25.666 -58.7319
lclavicle -1.21756e-015 1.17283e-014
lhumerus 47.8778 -19.3567 28.0106
lradius 42.6628
lwrist 6.54283
lhand -7.35305 -21.2257
lfingers 7.12502
lthumb 18.5312 7.91162
rfemur -4.24877 -1.0317 -1.78876
rtibia 7.92655
rfoot -6.66777 -4.51551
rtoes 9.93827
lfemur 20.6876 -1.49783 -25.4198
ltibia 9.44308
lfoot -19.0201 6.33908
ltoes -6.59588
634
root -7.75235 17.0376 -2.22746 449.467 83.4169 455.939
lowerback 6.48092 1.18347 -10.5388
upperback 3.62798 1.13604 -1.68187
thorax 0.00708999 0.503452 4.07949
lowerneck -23.2999 2.55767 3.80914
upperneck 31.9333 3.37973 -1.56162
head 15.1658 1.87363 -0.589102
rclavicle 9.57894e-015 1.13307e-014
rhumerus 47.1935 19.4002 -34.0631
rradius 40.3214
rwrist -2.49182
rhand 0.338295 -30.3858
rfingers 7.12502
rthumb 25.9144 -58.6396
lclavicle 9.57894e-015 1.13307e-014
lhumerus 47.3244 -20.6591 28.2548
lradius 42.9868
lwrist 6.59679
lhand -6.95856 -21.0098
lfingers 7.12502
lthumb 18.9107 8.09092
rfemur -4.3206 -1.0952 -2.13063
rtibia 7.93352
rfoot -6.57825 -4.14041
rtoes 10.4133
lfemur 20.8281 -1.41363 -25.668
ltibia 9.53811
lfoot -18.9531 6.11457
ltoes -7.52898
635
root -7.68249 17.0269 -2.18032 452.141 83.0803 458.58
lowerback 4.94476 0.920357 -10.7661
upperback 4.61554 1.08911 -1.76306
thorax 1.91685 0.363563 4.15395
lowerneck -23.7751 2.70928 3.93207
upperneck 31.2634 3.5656 -1.87292
head 14.9801 1.89307 -0.703864
rclavicle 1.78906e-015 3.12092e-014
rhumerus 48.4115 18.4624 -33.7052
rradius 40.251
rwrist -2.53382
rhand 0.252479 -30.3943
rfingers 7.12502
rthumb 25.8322 -58.6601
lclavicle 1.78906e-015 3.12092e-014
lhumerus 47.8608 -19.3515 28.1364
lradius 42.9573
lwrist 6.42759
lhand -6.57656 -20.683
lfingers 7.12502
lthumb 19.278 8.38151
rfemur -4.21487 -1.10273 -2.36344
rtibia 7.73854
rfoot -6.35304 -3.86902
rtoes 10.2855
lfemur 20.9404 -1.49782 -25.798
ltibia 9.70833
lfoot -18.7937 5.9204
ltoes -8.266
636
root -7.61492 17.0168 -2.12681 454.712 82.9637 461.153
lowerback 5.02809 0.925402 -10.7686
upperback 4.54646 1.07868 -1.78785
thorax 1.79902 0.366577 4.12821
lowerneck -23.6339 2.65946 3.80849
upperneck 31.2206 3.49803 -1.72324
head 14.9202 1.87444 -0.635215
rclavicle -1.28216e-014 -1.76918e-014
rhumerus 48.2602 18.4718 -33.6055
rradius 40.2821
rwrist -2.62684
rhand 0.224759 -30.4177
rfingers 7.12502
rthumb 25.8056 -58.6874
lclavicle -1.28216e-014 -1.76918e-014
lhumerus 47.9638 -19.5685 28.1464
lradius 42.9453
lwrist 6.25248
lhand -6.63964 -20.6943
lfingers 7.12502
lthumb 19.2174 8.37621
rfemur -4.08737 -0.888119 -2.25659
rtibia 7.57215
rfoot -5.83807 -3.82391
rtoes 10.4405
lfemur 21.0811 -1.74722 -25.6771
ltibia 9.88223
lfoot -18.771 5.78228
ltoes -7.89296
637
root -7.54522 17.0058 -2.07468 457.118 82.7648 463.527
lowerback 5.26457 0.954325 -10.8014
upperback 4.34281 1.06414 -1.82956
thorax 1.45392 0.381315 4.09871
lowerneck -23.4634 2.62477 3.69689
upperneck 31.2814 3.45176 -1.55082
head 14.9019 1.8729 -0.554541
rclavicle 2.11209e-015 -3.26007e-014
rhumerus 47.9563 18.5851 -33.6196
rradius 40.2746
rwrist -2.6588
rhand 0.354075 -30.4612
rfingers 7.12502
rthumb 25.9295 -58.7128
lclavicle 2.11209e-015 -3.26007e-014
lhumerus 48.0252 -19.9769 27.9859
lradius 43.0168
lwrist 6.21324
lhand -6.93293 -20.7814
lfingers 7.12502
lthumb 18.9353 8.31696
rfemur -4.07832 -0.757027 -2.21972
rtibia 7.67546
rfoot -5.19919 -3.83162
rtoes 12.2923
lfemur 21.2022 -1.93393 -25.6238
ltibia 10.0066
lfoot -18.7984 5.58914
ltoes -7.31596
638
root -7.47271 16.9938 -2.0213 459.6 82.5251 465.948
lowerback 4.93264 0.860677 -10.8662
upperback 4.51344 1.00332 -1.87043
thorax 1.83053 0.328418 4.09995
lowerneck -23.6806 2.63128 3.6996
upperneck 31.2785 3.47824 -1.64463
head 14.9516 1.86613 -0.586757
rclavicle 1.83627e-014 4.69132e-014
rhumerus 48.1888 18.3593 -33.5329
rradius 40.2664
rwrist -2.56926
rhand 0.406148 -30.4109
rfingers 7.12502
rthumb 25.9793 -58.6552
lclavicle 1.83627e-014 4.69132e-014
lhumerus 48.1932 -19.7795 27.7829
lradius 43.1962
lwrist 6.3398
lhand -6.97176 -20.7647
lfingers 7.12502
lthumb 18.898 8.33726
rfemur -4.00558 -0.741041 -2.21244
rtibia 7.74259
rfoot -4.4588 -3.70438
rtoes 14.5994
lfemur 21.2978 -2.02256 -25.5169
ltibia 10.115
lfoot -18.7396 5.36549
ltoes -7.67215
639
root -7.39998 16.98 -1.96288 461.573 82.454 467.882
lowerback 4.812 0.813683 -10.856
upperback 4.51239 0.955227 -1.82821
thorax 1.90349 0.299619 4.14177
lowerneck -23.677 2.5634 3.60676
upperneck 31.3749 3.45388 -1.71785
head 14.9934 1.83644 -0.605506
rclavicle -3.65267e-015 -1.92821e-014
rhumerus 48.2584 18.3515 -33.454
rradius 40.273
rwrist -2.41815
rhand 0.404915 -30.1626
rfingers 7.12502
rthumb 25.9782 -58.407
lclavicle -3.65267e-015 -1.92821e-014
lhumerus 48.2058 -19.8319 27.6503
lradius 43.3261
lwrist 6.5829
lhand -6.84812 -20.7483
lfingers 7.12502
lthumb 19.0169 8.34207
rfemur -3.92756 -0.675215 -1.96746
rtibia 7.89277
rfoot -3.65076 -3.45449
rtoes 15.4948
lfemur 21.4391 -2.07093 -25.1761
ltibia 10.2082
lfoot -18.7379 5.17901
ltoes -8.49947
640
root -7.32546 16.9661 -1.90563 463.459 82.2667 469.729
lowerback 4.76356 0.771246 -10.8976
upperback 4.4281 0.895586 -1.85313
thorax 1.85079 0.273751 4.14106
lowerneck -23.3822 2.59686 3.5989
upperneck 31.2613 3.53715 -1.76237
head 14.8801 1.86843 -0.60936
rclavicle 2.41026e-015 2.70347e-014
rhumerus 48.2331 18.4689 -33.5065
rradius 40.2821
rwrist -2.30778
rhand 0.641502 -30.3295
rfingers 7.12502
rthumb 26.2047 -58.5405
lclavicle 2.41026e-015 2.70347e-014
lhumerus 48.193 -20.0479 27.3965
lradius 43.4361
lwrist 6.78303
lhand -7.02512 -20.8157
lfingers 7.12502
lthumb 18.8467 8.29128
rfemur -3.95927 -0.619216 -1.86467
rtibia 8.4655
rfoot -3.55463 -3.61988
rtoes 14.1676
lfemur 21.5919 -2.23945 -25.046
ltibia 10.3174
lfoot -18.778 5.08244
ltoes -9.45672
641
root -7.2457 16.9532 -1.85028 465.337 81.8393 471.582
lowerback 4.54618 0.690774 -11.051
upperback 4.47971 0.826688 -1.99142
thorax 2.04079 0.229166 4.08617
lowerneck -23.294 2.6795 3.75987
upperneck 31.1062 3.64376 -1.9185
head 14.8019 1.90899 -0.682154
rclavicle -1.02871e-014 -2.16675e-014
rhumerus 48.2944 18.4899 -33.4643
rradius 40.3684
rwrist -2.37739
rhand 0.749488 -30.6881
rfingers 7.12502
rthumb 26.3081 -58.8838
lclavicle -1.02871e-014 -2.16675e-014
lhumerus 48.279 -20.0872 27.1246
lradius 43.5834
lwrist 6.89797
lhand -7.39619 -20.9654
lfingers 7.12502
lthumb 18.4897 8.17592
rfemur -3.93678 -0.695928 -2.08456
rtibia 9.21695
rfoot -4.70986 -4.55996
rtoes 9.87003
lfemur 21.7677 -2.53323 -25.2527
ltibia 10.4397
lfoot -18.6296 5.03941
ltoes -10.3117
642
root -7.16706 16.9412 -1.79327 466.764 81.5751 473
lowerback 4.8027 0.697479 -11.0039
upperback 4.2181 0.77675 -2.10838
thorax 1.62843 0.234981 3.93611
lowerneck -23.1845 2.61757 3.87951
upperneck 31.4364 3.57096 -1.98916
head 14.9299 1.89358 -0.744987
rclavicle 1.42007e-014 5.26779e-014
rhumerus 47.9885 18.8126 -33.5463
rradius 40.4071
rwrist -2.6077
rhand 0.528911 -30.7817
rfingers 7.12502
rthumb 26.0969 -59.0087
lclavicle 1.42007e-014 5.26779e-014
lhumerus 48.1664 -20.4953 27.2566
lradius 43.6817
lwrist 6.76157
lhand -7.54178 -21.0728
lfingers 7.12502
lthumb 18.3497 8.08173
rfemur -3.88453 -0.73561 -2.11097
rtibia 9.88321
rfoot -6.09328 -5.60851
rtoes 4.87741
lfemur 21.9965 -2.722 -25.2315
ltibia 10.4778
lfoot -18.3804 4.90564
ltoes -10.6434
643
root -7.0974 16.9311 -1.73678 469.146 81.4536 475.369
lowerback 4.65887 0.617148 -10.8356
upperback 4.30993 0.703646 -2.08657
thorax 1.81596 0.190443 3.87007
lowerneck -23.2451 2.57986 3.80972
upperneck 31.5581 3.56078 -2.01155
head 14.9975 1.87947 -0.743166
rclavicle -8.31168e-015 -2.82274e-014
rhumerus 48.1133 18.6385 -33.6856
rradius 40.2952
rwrist -2.60399
rhand 0.435454 -30.8479
rfingers 7.12502
rthumb 26.0074 -59.0881
lclavicle -8.31168e-015 -2.82274e-014
lhumerus 48.1873 -20.389 27.5824
lradius 43.7108
lwrist 6.48445
lhand -7.59295 -21.0841
lfingers 7.12502
lthumb 18.3005 8.07499
rfemur -3.82338 -0.874342 -1.93055
rtibia 10.4595
rfoot -6.64724 -5.95601
rtoes 3.18616
lfemur 22.1544 -2.92608 -24.9436
ltibia 10.6124
lfoot -18.3413 4.63595
ltoes -10.4958
644
root -7.01472 16.9273 -1.68819 470.596 81.4363 476.862
lowerback 4.38871 0.589585 -10.5832
upperback 4.46224 0.72204 -2.0081
thorax 2.12354 0.185001 3.81461
lowerneck -23.2656 2.53997 3.61708
upperneck 31.5303 3.58579 -2.02949
head 14.9857 1.86321 -0.71262
rclavicle 9.20621e-015 4.21423e-014
rhumerus 48.1824 18.4801 -33.7768
rradius 40.2156
rwrist -2.36727
rhand 0.441036 -30.8677
rfingers 7.12502
rthumb 26.0127 -59.1071
lclavicle 9.20621e-015 4.21423e-014
lhumerus 48.1839 -20.3714 27.6968
lradius 43.8185
lwrist 6.56862
lhand -7.71596 -21.0722
lfingers 7.12502
lthumb 18.1821 8.098
rfemur -3.64922 -1.14819 -1.68256
rtibia 10.9197
rfoot -6.80636 -5.52584
rtoes 4.14655
lfemur 22.4958 -3.04292 -24.6697
ltibia 10.67
lfoot -18.326 4.59709
ltoes -11.1159
645
root -6.93317 16.9282 -1.63793 473.282 81.5098 479.647
lowerback 4.33768 0.534104 -10.2073
upperback 4.5326 0.664436 -1.87868
thorax 2.23073 0.155456 3.74378
lowerneck -23.1513 2.47841 3.54493
upperneck 31.4591 3.5701 -2.14508
head 14.9282 1.83238 -0.752521
rclavicle -9.21864e-015 1.47101e-014
rhumerus 48.0867 18.4834 -33.8915
rradius 40.1824
rwrist -2.25601
rhand 0.371037 -30.6572
rfingers 7.12502
rthumb 25.9457 -58.9064
lclavicle -9.21864e-015 1.47101e-014
lhumerus 48.0295 -20.4145 28.0801
lradius 43.9348
lwrist 6.49082
lhand -7.78832 -21.116
lfingers 7.12502
lthumb 18.1125 8.06065
rfemur -3.32741 -1.38931 -1.21753
rtibia 11.3574
rfoot -7.28293 -5.32606
rtoes 4.73903
lfemur 22.8292 -3.26177 -24.2306
ltibia 10.7183
lfoot -17.9332 4.82401
ltoes -13.3556
646
root -6.85692 16.9367 -1.5848 476.1 81.6518 482.594
lowerback 4.38935 0.481131 -9.66611
upperback 4.59195 0.60234 -1.81771
thorax 2.26835 0.134086 3.50874
lowerneck -23.0201 2.38233 3.61538
upperneck 31.4682 3.4304 -2.2013
head 14.9008 1.77725 -0.816117
rclavicle 4.70871e-015 2.04748e-014
rhumerus 47.8963 18.4066 -34.3222
rradius 40.1305
rwrist -2.23965
rhand 0.253493 -30.4373
rfingers 7.12502
rthumb 25.8332 -58.7029
lclavicle 4.70871e-015 2.04748e-014
lhumerus 47.9159 -20.4765 28.508
lradius 43.9799
lwrist 6.24862
lhand -8.09914 -21.2154
lfingers 7.12502
lthumb 17.8134 7.98876
rfemur -3.06915 -1.52024 -0.589455
rtibia 11.9151
rfoot -7.86067 -5.40049
rtoes 3.70454
lfemur 23.1051 -3.35498 -23.5987
ltibia 10.8216
lfoot -17.4271 4.9251
ltoes -15.4451
647
root -6.78725 16.9524 -1.52911 478.482 81.7645 485.074
lowerback 4.49932 0.473595 -9.3751
upperback 4.61282 0.580105 -1.62598
thorax 2.22758 0.126825 3.5468
lowerneck -23.0412 2.41894 3.55983
upperneck 31.565 3.47636 -2.08989
head 14.9476 1.8087 -0.750585
rclavicle -2.08351e-014 -1.58034e-014
rhumerus 47.7593 18.3929 -34.508
rradius 40.1327
rwrist -2.21189
rhand 0.262422 -30.3876
rfingers 7.12502
rthumb 25.8417 -58.652
lclavicle -2.08351e-014 -1.58034e-014
lhumerus 47.8091 -20.6667 28.792
lradius 44.0185
lwrist 6.49506
lhand -8.43472 -21.324
lfingers 7.12502
lthumb 17.4905 7.90915
rfemur -2.82699 -1.42064 0.0228979
rtibia 12.2634
rfoot -8.29255 -5.58221
rtoes 2.88198
lfemur 23.2635 -3.40456 -22.9595
ltibia 11.0649
lfoot -17.1441 4.6264
ltoes -15.4953
